<svg width="37" height="36" viewBox="0 0 37 36" fill="none" xmlns="http://www.w3.org/2000/svg">
<g clip-path="url(#clip0_80_38006)">
<path d="M30.2141 6.62883C28.4556 4.24593 26.0828 2.38542 23.3493 1.24597C20.6157 0.106526 17.624 -0.269058 14.6936 0.159326C11.8434 0.56455 9.14879 1.70847 6.8775 3.47743C4.60621 5.2464 2.83728 7.57885 1.74645 10.2431C0.655616 12.9073 0.280842 15.8106 0.659358 18.6645C1.03787 21.5184 2.15651 24.2236 3.90413 26.5113C4.64823 27.5369 5.0379 28.777 5.01413 30.0438V31.5003C5.01413 32.6938 5.48823 33.8384 6.33215 34.6823C7.17606 35.5262 8.32065 36.0003 9.51413 36.0003H20.0141C21.2076 36.0003 22.3522 35.5262 23.1961 34.6823C24.04 33.8384 24.5141 32.6938 24.5141 31.5003H25.2551C27.0729 31.4959 28.8275 30.8333 30.1944 29.6352C31.5613 28.437 32.4481 26.7843 32.6906 24.9828L33.0191 22.5003H33.5141C33.9104 22.5087 34.3043 22.4368 34.672 22.289C35.0398 22.1412 35.3739 21.9206 35.6541 21.6403C35.9344 21.3601 36.1551 21.026 36.3028 20.6582C36.4506 20.2905 36.5225 19.8966 36.5141 19.5003C36.5141 17.3703 32.1161 8.97783 30.2141 6.62883ZM31.7036 19.5003C31.3399 19.5005 30.9887 19.6327 30.7152 19.8725C30.4418 20.1123 30.2648 20.4433 30.2171 20.8038L29.7161 24.5913C29.5704 25.6719 29.0383 26.6632 28.2182 27.3818C27.3981 28.1005 26.3455 28.4978 25.2551 28.5003H23.0141C22.6163 28.5003 22.2348 28.6584 21.9535 28.9397C21.6722 29.221 21.5141 29.6025 21.5141 30.0003V31.5003C21.5141 31.8981 21.3561 32.2797 21.0748 32.561C20.7935 32.8423 20.412 33.0003 20.0141 33.0003H9.51413C9.1163 33.0003 8.73477 32.8423 8.45347 32.561C8.17216 32.2797 8.01413 31.8981 8.01413 31.5003V30.0438C8.0368 28.118 7.43064 26.2374 6.28763 24.6873C4.85942 22.8165 3.94515 20.6047 3.63553 18.2715C3.3259 15.9382 3.63168 13.5646 4.52252 11.386C5.41337 9.20741 6.85832 7.29958 8.71404 5.85177C10.5698 4.40396 12.7718 3.46648 15.1016 3.13233C15.7378 3.04401 16.3793 2.99991 17.0216 3.00033C19.1294 2.99749 21.2081 3.49146 23.0892 4.44218C24.9703 5.39291 26.6009 6.77362 27.8486 8.47233C30.2177 11.8809 32.1229 15.5894 33.5141 19.5003H31.7036ZM24.8141 12.0168C24.716 11.8459 24.5852 11.6959 24.429 11.5756C24.2729 11.4552 24.0946 11.3668 23.9043 11.3154C23.7141 11.264 23.5155 11.2506 23.32 11.276C23.1245 11.3014 22.936 11.365 22.7651 11.4633L21.2921 12.3093C20.5282 11.535 19.5678 10.9833 18.5141 10.7133V9.00033C18.5141 8.6025 18.3561 8.22097 18.0748 7.93967C17.7935 7.65836 17.412 7.50033 17.0141 7.50033C16.6163 7.50033 16.2348 7.65836 15.9535 7.93967C15.6722 8.22097 15.5141 8.6025 15.5141 9.00033V10.7133C14.4588 10.9825 13.4968 11.5343 12.7316 12.3093L11.2586 11.4633C11.0878 11.3648 10.8993 11.3009 10.7039 11.2753C10.5084 11.2497 10.3098 11.2628 10.1194 11.3139C9.92896 11.365 9.75049 11.4531 9.59414 11.5732C9.43778 11.6933 9.30662 11.843 9.20813 12.0138C9.10964 12.1846 9.04575 12.3731 9.02011 12.5686C8.99447 12.7641 9.00759 12.9627 9.05871 13.1531C9.10982 13.3435 9.19795 13.522 9.31804 13.6783C9.43813 13.8347 9.58784 13.9658 9.75863 14.0643L11.2481 14.9208C11.099 15.4343 11.0203 15.9657 11.0141 16.5003C11.0217 17.0352 11.102 17.5666 11.2526 18.0798L9.76313 18.9363C9.41821 19.1352 9.16644 19.463 9.06321 19.8476C8.95997 20.2321 9.01371 20.6419 9.21263 20.9868C9.41154 21.3317 9.73932 21.5835 10.1239 21.6867C10.5084 21.79 10.9182 21.7362 11.2631 21.5373L12.7361 20.6913C13.5001 21.4657 14.4604 22.0174 15.5141 22.2873V24.0003C15.5141 24.3981 15.6722 24.7797 15.9535 25.061C16.2348 25.3423 16.6163 25.5003 17.0141 25.5003C17.412 25.5003 17.7935 25.3423 18.0748 25.061C18.3561 24.7797 18.5141 24.3981 18.5141 24.0003V22.2873C19.5695 22.0181 20.5314 21.4664 21.2966 20.6913L22.7696 21.5373C22.9404 21.6358 23.1289 21.6997 23.3244 21.7253C23.5199 21.751 23.7185 21.7379 23.9089 21.6867C24.0993 21.6356 24.2778 21.5475 24.4341 21.4274C24.5905 21.3073 24.7216 21.1576 24.8201 20.9868C24.9186 20.816 24.9825 20.6275 25.0081 20.4321C25.0338 20.2366 25.0207 20.038 24.9696 19.8476C24.9184 19.6572 24.8303 19.4787 24.7102 19.3223C24.5901 19.166 24.4404 19.0348 24.2696 18.9363L22.7801 18.0798C22.9293 17.5663 23.008 17.035 23.0141 16.5003C23.0065 15.9655 22.9263 15.4341 22.7756 14.9208L24.2651 14.0643C24.6092 13.8654 24.8603 13.5381 24.9633 13.1542C25.0662 12.7703 25.0126 12.3612 24.8141 12.0168ZM17.0141 19.5003C16.4208 19.5003 15.8408 19.3244 15.3474 18.9947C14.8541 18.6651 14.4696 18.1966 14.2425 17.6484C14.0154 17.1002 13.956 16.497 14.0718 15.9151C14.1875 15.3331 14.4733 14.7986 14.8928 14.379C15.3124 13.9594 15.8469 13.6737 16.4289 13.558C17.0108 13.4422 17.614 13.5016 18.1622 13.7287C18.7104 13.9557 19.1789 14.3403 19.5085 14.8336C19.8382 15.327 20.0141 15.907 20.0141 16.5003C20.0141 17.296 19.6981 18.059 19.1354 18.6216C18.5728 19.1843 17.8098 19.5003 17.0141 19.5003Z" fill="#374957"/>
</g>
<defs>
<clipPath id="clip0_80_38006">
<rect width="36" height="36" fill="white" transform="translate(0.51416)"/>
</clipPath>
</defs>
</svg>
