<svg width="53" height="53" viewBox="0 0 53 53" fill="none" xmlns="http://www.w3.org/2000/svg">
<g clip-path="url(#clip0_1_4044)">
<path d="M26.4997 44.1667C31.1836 44.1614 35.6741 42.2984 38.9861 38.9864C42.2981 35.6744 44.1611 31.1839 44.1663 26.5V17.6667C44.1663 12.9812 42.305 8.48759 38.9919 5.17445C35.6788 1.8613 31.1852 0 26.4997 0C21.8142 0 17.3206 1.8613 14.0075 5.17445C10.6943 8.48759 8.83301 12.9812 8.83301 17.6667V26.5C8.83827 31.1839 10.7013 35.6744 14.0133 38.9864C17.3253 42.2984 21.8158 44.1614 26.4997 44.1667V44.1667ZM26.4997 4.41667C29.6279 4.42247 32.6534 5.53379 35.0416 7.55426C37.4298 9.57473 39.027 12.3743 39.5509 15.4583H33.1247C32.539 15.4583 31.9773 15.691 31.5631 16.1051C31.149 16.5193 30.9163 17.081 30.9163 17.6667C30.9163 18.2524 31.149 18.8141 31.5631 19.2282C31.9773 19.6423 32.539 19.875 33.1247 19.875H39.7497V24.2917H33.1247C32.539 24.2917 31.9773 24.5243 31.5631 24.9385C31.149 25.3526 30.9163 25.9143 30.9163 26.5C30.9163 27.0857 31.149 27.6474 31.5631 28.0615C31.9773 28.4757 32.539 28.7083 33.1247 28.7083H39.5509C39.0319 31.7945 37.436 34.5968 35.0467 36.6179C32.6574 38.6389 29.6291 39.7479 26.4997 39.7479C23.3702 39.7479 20.342 38.6389 17.9526 36.6179C15.5633 34.5968 13.9675 31.7945 13.4484 28.7083H19.8747C20.4604 28.7083 21.0221 28.4757 21.4362 28.0615C21.8503 27.6474 22.083 27.0857 22.083 26.5C22.083 25.9143 21.8503 25.3526 21.4362 24.9385C21.0221 24.5243 20.4604 24.2917 19.8747 24.2917H13.2497V19.875H19.8747C20.4604 19.875 21.0221 19.6423 21.4362 19.2282C21.8503 18.8141 22.083 18.2524 22.083 17.6667C22.083 17.081 21.8503 16.5193 21.4362 16.1051C21.0221 15.691 20.4604 15.4583 19.8747 15.4583H13.4484C13.9724 12.3743 15.5696 9.57473 17.9578 7.55426C20.346 5.53379 23.3715 4.42247 26.4997 4.41667V4.41667Z" fill="#7F0046"/>
<path d="M50.7917 26.5C50.206 26.5 49.6443 26.7327 49.2301 27.1468C48.816 27.5609 48.5833 28.1226 48.5833 28.7083C48.5775 33.9777 46.4816 39.0296 42.7556 42.7556C39.0296 46.4816 33.9777 48.5775 28.7083 48.5833H24.2917C19.0225 48.5769 13.9709 46.4809 10.245 42.755C6.51913 39.0291 4.42309 33.9775 4.41667 28.7083C4.41667 28.1226 4.184 27.5609 3.76986 27.1468C3.35572 26.7327 2.79402 26.5 2.20833 26.5C1.62265 26.5 1.06095 26.7327 0.646806 27.1468C0.232663 27.5609 0 28.1226 0 28.7083C0.00759771 35.1486 2.56933 41.3228 7.12326 45.8767C11.6772 50.4307 17.8514 52.9924 24.2917 53H28.7083C35.1486 52.9924 41.3228 50.4307 45.8767 45.8767C50.4307 41.3228 52.9924 35.1486 53 28.7083C53 28.1226 52.7673 27.5609 52.3532 27.1468C51.9391 26.7327 51.3774 26.5 50.7917 26.5Z" fill="#7F0046"/>
</g>
<defs>
<clipPath id="clip0_1_4044">
<rect width="53" height="53" fill="white"/>
</clipPath>
</defs>
</svg>
