<svg width="56" height="56" viewBox="0 0 56 56" fill="none" xmlns="http://www.w3.org/2000/svg">
<g clip-path="url(#clip0_1_4050)">
<path d="M16.4399 55.5464C18.9712 55.5464 21.0232 53.4944 21.0232 50.9631C21.0232 48.4318 18.9712 46.3798 16.4399 46.3798C13.9086 46.3798 11.8566 48.4318 11.8566 50.9631C11.8566 53.4944 13.9086 55.5464 16.4399 55.5464Z" fill="#7F0046"/>
<path d="M39.3568 55.5464C41.8881 55.5464 43.9401 53.4944 43.9401 50.9631C43.9401 48.4318 41.8881 46.3798 39.3568 46.3798C36.8255 46.3798 34.7734 48.4318 34.7734 50.9631C34.7734 53.4944 36.8255 55.5464 39.3568 55.5464Z" fill="#7F0046"/>
<path d="M54.6764 3.60517C54.2466 3.17555 53.6638 2.9342 53.0562 2.9342C52.4485 2.9342 51.8657 3.17555 51.436 3.60517L39.6132 15.4393L36.0589 11.7291C35.8503 11.5122 35.6011 11.3384 35.3253 11.2177C35.0496 11.0971 34.7529 11.0319 34.452 11.0259C34.1511 11.02 33.8519 11.0733 33.5716 11.183C33.2914 11.2926 33.0354 11.4564 32.8185 11.665C32.6015 11.8735 32.4277 12.1228 32.307 12.3985C32.1864 12.6742 32.1212 12.971 32.1153 13.2719C32.1032 13.8796 32.3331 14.4672 32.7543 14.9054L36.453 18.7531C36.8471 19.1788 37.3235 19.5201 37.8533 19.7564C38.3831 19.9928 38.9553 20.1192 39.5353 20.1281L39.611 20.1281C40.1794 20.13 40.7426 20.0189 41.2678 19.8014C41.793 19.5838 42.2697 19.2641 42.6703 18.8608L54.6764 6.84559C55.106 6.41584 55.3473 5.83305 55.3473 5.22538C55.3473 4.61771 55.106 4.03492 54.6764 3.60517V3.60517Z" fill="#7F0046"/>
<path d="M50.5859 21.2066C50.2896 21.1531 49.9857 21.1584 49.6915 21.2224C49.3973 21.2864 49.1186 21.4077 48.8713 21.5795C48.624 21.7512 48.4129 21.97 48.2502 22.2234C48.0875 22.4767 47.9763 22.7596 47.923 23.056L47.6297 24.6808C47.3438 26.2673 46.5095 27.703 45.2725 28.7368C44.0355 29.7706 42.4745 30.3369 40.8624 30.3366L12.8147 30.3366L10.6605 12.0033L25.6068 12.0033C26.2146 12.0033 26.7975 11.7618 27.2272 11.332C27.657 10.9023 27.8984 10.3194 27.8984 9.71159C27.8984 9.1038 27.657 8.52091 27.2272 8.09114C26.7975 7.66136 26.2146 7.41992 25.6068 7.41992L10.1197 7.41992L10.0234 6.61326C9.82595 4.94171 9.02212 3.40069 7.76428 2.28224C6.50645 1.1638 4.88203 0.545639 3.19885 0.544922L2.6901 0.544922C2.08232 0.544922 1.49942 0.786365 1.06965 1.21614C0.63988 1.64591 0.398437 2.2288 0.398437 2.83659C0.398437 3.44438 0.63988 4.02727 1.06965 4.45704C1.49942 4.88681 2.08232 5.12826 2.6901 5.12826L3.19885 5.12826C3.76016 5.12833 4.30192 5.3344 4.72137 5.70739C5.14083 6.08038 5.40881 6.59435 5.47448 7.1518L8.62781 33.9643C8.95518 36.7528 10.2949 39.324 12.3928 41.1899C14.4907 43.0559 17.2006 44.0866 20.0082 44.0866L43.9401 44.0866C44.5479 44.0866 45.1308 43.8451 45.5606 43.4154C45.9903 42.9856 46.2318 42.4027 46.2318 41.7949C46.2318 41.1871 45.9903 40.6042 45.5606 40.1745C45.1308 39.7447 44.5479 39.5033 43.9401 39.5033L20.0082 39.5033C18.5863 39.5035 17.1993 39.0629 16.0382 38.2421C14.8771 37.4212 13.9991 36.2605 13.5251 34.9199L40.8624 34.9199C43.5489 34.9201 46.15 33.9763 48.2114 32.2534C50.2727 30.5306 51.6631 28.1382 52.1397 25.4943L52.433 23.8672C52.5405 23.2695 52.4064 22.6536 52.06 22.1547C51.7137 21.6558 51.1835 21.3148 50.5859 21.2066Z" fill="#7F0046"/>
</g>
<defs>
<clipPath id="clip0_1_4050">
<rect width="55" height="55" fill="white" transform="translate(0.398438 0.544922)"/>
</clipPath>
</defs>
</svg>
