<svg width="56" height="56" viewBox="0 0 56 56" fill="none" xmlns="http://www.w3.org/2000/svg">
<g clip-path="url(#clip0_1_4061)">
<path d="M36.6706 0.515625L18.3372 0.515625C15.2994 0.519264 12.3871 1.72765 10.239 3.87571C8.09093 6.02378 6.88255 8.93614 6.87891 11.974L6.87891 44.0573C6.88255 47.0951 8.09093 50.0075 10.239 52.1555C12.3871 54.3036 15.2994 55.512 18.3372 55.5156L36.6706 55.5156C39.7084 55.512 42.6208 54.3036 44.7688 52.1555C46.9169 50.0075 48.1253 47.0951 48.1289 44.0573L48.1289 11.974C48.1253 8.93614 46.9169 6.02378 44.7688 3.87571C42.6208 1.72765 39.7084 0.519264 36.6706 0.515625V0.515625ZM43.5456 44.0573C43.5456 45.8807 42.8212 47.6293 41.5319 48.9187C40.2426 50.208 38.4939 50.9323 36.6706 50.9323L29.7956 50.9323L29.7956 48.6406C29.7956 48.0328 29.5541 47.4499 29.1244 47.0202C28.6946 46.5904 28.1117 46.349 27.5039 46.349C26.8961 46.349 26.3132 46.5904 25.8835 47.0202C25.4537 47.4499 25.2122 48.0328 25.2122 48.6406L25.2122 50.9323L18.3372 50.9323C16.5139 50.9323 14.7652 50.208 13.4759 48.9187C12.1866 47.6293 11.4622 45.8807 11.4622 44.0573L11.4622 11.974C11.4622 10.1506 12.1866 8.40191 13.4759 7.1126C14.7652 5.82329 16.5139 5.09896 18.3372 5.09896L36.6706 5.09896C38.4939 5.09896 40.2426 5.82329 41.5319 7.1126C42.8212 8.40191 43.5456 10.1506 43.5456 11.974L43.5456 44.0573ZM36.6706 37.1823C36.6706 37.7901 36.4291 38.373 35.9994 38.8027C35.5696 39.2325 34.9867 39.474 34.3789 39.474L20.6289 39.474C20.0211 39.474 19.4382 39.2325 19.0085 38.8027C18.5787 38.373 18.3372 37.7901 18.3372 37.1823C18.3372 36.5745 18.5787 35.9916 19.0085 35.5618C19.4382 35.1321 20.0211 34.8906 20.6289 34.8906L34.3789 34.8906C34.9867 34.8906 35.5696 35.1321 35.9994 35.5618C36.4291 35.9916 36.6706 36.5745 36.6706 37.1823ZM22.9206 30.3073C23.5284 30.3073 24.1113 30.0658 24.541 29.6361C24.9708 29.2063 25.2122 28.6234 25.2122 28.0156L25.2122 25.724L29.7956 25.724L29.7956 28.0156C29.7956 28.6234 30.037 29.2063 30.4668 29.6361C30.8966 30.0658 31.4795 30.3073 32.0872 30.3073C32.695 30.3073 33.2779 30.0658 33.7077 29.6361C34.1375 29.2063 34.3789 28.6234 34.3789 28.0156L34.3789 18.849C34.3789 17.0256 33.6546 15.2769 32.3653 13.9876C31.076 12.6983 29.3273 11.974 27.5039 11.974C25.6805 11.974 23.9319 12.6983 22.6425 13.9876C21.3532 15.2769 20.6289 17.0256 20.6289 18.849L20.6289 28.0156C20.6289 28.6234 20.8703 29.2063 21.3001 29.6361C21.7299 30.0658 22.3128 30.3073 22.9206 30.3073ZM27.5039 16.5573C28.1117 16.5573 28.6946 16.7987 29.1244 17.2285C29.5541 17.6583 29.7956 18.2412 29.7956 18.849L29.7956 21.1406L25.2122 21.1406L25.2122 18.849C25.2122 18.2412 25.4537 17.6583 25.8835 17.2285C26.3132 16.7987 26.8961 16.5573 27.5039 16.5573V16.5573Z" fill="#7E0146"/>
</g>
<defs>
<clipPath id="clip0_1_4061">
<rect width="55" height="55" fill="white" transform="translate(0.00390625 0.515625)"/>
</clipPath>
</defs>
</svg>
