<svg width="59" height="57" viewBox="0 0 59 57" fill="none" xmlns="http://www.w3.org/2000/svg">
<g clip-path="url(#clip0_1_4056)">
<path d="M58.8498 23.8317C58.8499 23.6614 58.8304 23.4916 58.7916 23.3254L55.6401 9.63337C55.0546 7.03459 53.5585 4.70859 51.4028 3.04539C49.2471 1.38219 46.5628 0.482917 43.8001 0.498365L15.7177 0.498365C12.9566 0.485064 10.2746 1.38532 8.12089 3.04834C5.96719 4.71136 4.47257 7.03616 3.88737 9.63337L0.726154 23.3254C0.687386 23.4916 0.667873 23.6614 0.667972 23.8317L0.667972 26.165C0.666016 28.4368 1.52839 30.6305 3.09221 32.332V44.8317C3.09606 47.9248 4.37435 50.8901 6.64669 53.0772C8.91902 55.2643 11.9999 56.4947 15.2134 56.4984H44.3043C47.5179 56.4947 50.5988 55.2643 52.8711 53.0772C55.1434 50.8901 56.4217 47.9248 56.4256 44.8317V32.332C57.9894 30.6305 58.8518 28.4368 58.8498 26.165V23.8317ZM5.51646 24.086L8.61949 10.646C8.97111 9.08795 9.86801 7.69337 11.1601 6.69564C12.4522 5.69791 14.0612 5.15757 15.7177 5.16503H17.6377V12.165C17.6377 12.7839 17.8931 13.3774 18.3477 13.8149C18.8023 14.2525 19.419 14.4984 20.0619 14.4984C20.7049 14.4984 21.3215 14.2525 21.7761 13.8149C22.2307 13.3774 22.4862 12.7839 22.4862 12.165V5.16503L37.0316 5.16503V12.165C37.0316 12.7839 37.287 13.3774 37.7417 13.8149C38.1963 14.2525 38.8129 14.4984 39.4559 14.4984C40.0988 14.4984 40.7154 14.2525 41.1701 13.8149C41.6247 13.3774 41.8801 12.7839 41.8801 12.165V5.16503H43.8001C45.4566 5.15757 47.0655 5.69791 48.3576 6.69564C49.6498 7.69337 50.5467 9.08795 50.8983 10.646L54.0013 24.086V26.165C54.0013 27.4027 53.4905 28.5897 52.5812 29.4649C51.672 30.34 50.4387 30.8317 49.1528 30.8317H46.7286C45.4427 30.8317 44.2095 30.34 43.3002 29.4649C42.3909 28.5897 41.8801 27.4027 41.8801 26.165C41.8801 25.5462 41.6247 24.9527 41.1701 24.5151C40.7154 24.0775 40.0988 23.8317 39.4559 23.8317C38.8129 23.8317 38.1963 24.0775 37.7417 24.5151C37.287 24.9527 37.0316 25.5462 37.0316 26.165C37.0316 27.4027 36.5208 28.5897 35.6115 29.4649C34.7023 30.34 33.469 30.8317 32.1831 30.8317H27.3346C26.0487 30.8317 24.8155 30.34 23.9062 29.4649C22.997 28.5897 22.4862 27.4027 22.4862 26.165C22.4862 25.5462 22.2307 24.9527 21.7761 24.5151C21.3215 24.0775 20.7049 23.8317 20.0619 23.8317C19.419 23.8317 18.8023 24.0775 18.3477 24.5151C17.8931 24.9527 17.6377 25.5462 17.6377 26.165C17.6377 27.4027 17.1269 28.5897 16.2176 29.4649C15.3083 30.34 14.0751 30.8317 12.7892 30.8317H10.3649C9.07904 30.8317 7.84581 30.34 6.93655 29.4649C6.02728 28.5897 5.51646 27.4027 5.51646 26.165V24.086ZM44.3043 51.8317H15.2134C13.2846 51.8317 11.4347 51.0942 10.0708 49.7814C8.70693 48.4687 7.9407 46.6882 7.9407 44.8317V35.202C8.73246 35.3994 9.54708 35.4989 10.3649 35.4984H12.7892C14.1657 35.4991 15.5265 35.217 16.7807 34.6709C18.0349 34.1249 19.1535 33.3275 20.0619 32.332C20.9703 33.3275 22.0889 34.1249 23.3431 34.6709C24.5973 35.217 25.9581 35.4991 27.3346 35.4984H32.1831C33.5596 35.4991 34.9205 35.217 36.1747 34.6709C37.4288 34.1249 38.5475 33.3275 39.4559 32.332C40.3642 33.3275 41.4829 34.1249 42.7371 34.6709C43.9912 35.217 45.3521 35.4991 46.7286 35.4984H49.1528C49.9707 35.4989 50.7853 35.3994 51.5771 35.202V44.8317C51.5771 46.6882 50.8108 48.4687 49.4469 49.7814C48.083 51.0942 46.2332 51.8317 44.3043 51.8317Z" fill="#7F0046"/>
</g>
<defs>
<clipPath id="clip0_1_4056">
<rect width="58.1818" height="56" fill="white" transform="translate(0.667969 0.498047)"/>
</clipPath>
</defs>
</svg>
