<svg width="16" height="16" viewBox="0 0 16 16" fill="none" xmlns="http://www.w3.org/2000/svg">
<path d="M8.12263 8.12695L8.12263 3.90584L5.20312 1.00142" stroke="#C1539C" stroke-width="0.6" stroke-miterlimit="10"/>
<path d="M8.12109 3.9043L11.0295 0.999883" stroke="#C1539C" stroke-width="0.6" stroke-miterlimit="10"/>
<path d="M8.12263 8.10565L8.12263 12.328L5.20312 15.2324" stroke="#C1539C" stroke-width="0.6" stroke-miterlimit="10"/>
<path d="M8.12109 12.328L11.0295 15.2324" stroke="#C1539C" stroke-width="0.6" stroke-miterlimit="10"/>
<path d="M8.10547 8.12109L12.3269 8.12109L15.2328 5.20182" stroke="#C1539C" stroke-width="0.6" stroke-miterlimit="10"/>
<path d="M12.3281 8.12117L15.234 11.0293" stroke="#C1539C" stroke-width="0.6" stroke-miterlimit="10"/>
<path d="M8.12613 8.12134L3.90466 8.12134L1 5.20207" stroke="#C1539C" stroke-width="0.6" stroke-miterlimit="10"/>
<path d="M3.90466 8.12117L1 11.0293" stroke="#C1539C" stroke-width="0.6" stroke-miterlimit="10"/>
<path d="M8.11328 8.12695L11.0984 5.1421L11.0885 1.02494" stroke="#C1539C" stroke-width="0.6" stroke-miterlimit="10"/>
<path d="M11.0977 5.14205L15.2077 5.14453" stroke="#C1539C" stroke-width="0.6" stroke-miterlimit="10"/>
<path d="M8.12605 8.1128L5.14095 11.0977L1.02344 11.0878" stroke="#C1539C" stroke-width="0.6" stroke-miterlimit="10"/>
<path d="M5.14453 11.0973L5.14701 15.207" stroke="#C1539C" stroke-width="0.6" stroke-miterlimit="10"/>
<path d="M8.10547 8.1128L11.0906 11.0977L15.2081 11.0878" stroke="#C1539C" stroke-width="0.6" stroke-miterlimit="10"/>
<path d="M11.0923 11.0973L11.0898 15.207" stroke="#C1539C" stroke-width="0.6" stroke-miterlimit="10"/>
<path d="M8.12182 8.12695L5.13672 5.1421L5.14662 1.02494" stroke="#C1539C" stroke-width="0.6" stroke-miterlimit="10"/>
<path d="M5.13352 5.14205L1.02344 5.14453" stroke="#C1539C" stroke-width="0.6" stroke-miterlimit="10"/>
</svg>
