<svg width="14" height="14" viewBox="0 0 14 14" fill="none" xmlns="http://www.w3.org/2000/svg">
<path d="M6.99855 0.488251L0.488281 6.99799L6.99855 13.5077L13.5088 6.99798L6.99855 0.488251Z" stroke="#C1539C" stroke-width="0.6" stroke-miterlimit="10"/>
<path d="M4.33212 4.32929L4.33212 9.66809L9.67136 9.66809L9.67136 4.32929L4.33212 4.32929Z" stroke="#C1539C" stroke-width="0.6" stroke-miterlimit="10"/>
<path d="M5.66788 9.66799L7 11L8.33212 9.66798L7 8.33597L5.66788 9.66799Z" stroke="#C1539C" stroke-width="0.6" stroke-miterlimit="10"/>
<path d="M5.66788 4.33009L7 5.66211L8.33212 4.33009L7 2.99808L5.66788 4.33009Z" stroke="#C1539C" stroke-width="0.6" stroke-miterlimit="10"/>
<path d="M8.33584 6.99806L9.66797 8.33008L11.0001 6.99806L9.66797 5.66605L8.33584 6.99806Z" stroke="#C1539C" stroke-width="0.6" stroke-miterlimit="10"/>
<path d="M2.99991 6.99806L4.33203 8.33008L5.66416 6.99806L4.33203 5.66605L2.99991 6.99806Z" stroke="#C1539C" stroke-width="0.6" stroke-miterlimit="10"/>
</svg>
